# xmcd
#
# Track frame offsets:
# 150
# 25377
# 52747
# 80306
# 104760
# 122723
# 145053
# 171375
# 203127
# 222714
# 255801
#
# Disc length: 3814 seconds
#
#
# Revision: 0
# Processed by: cddbd v1.5.2PL0 Copyright (c) Steve Scherf et al.
# Submitted via: FreeRIP 2.52 
#
DISCID=9a0ee40b
DTITLE=Various Artist - Cafe del Mar Vol. II
DYEAR=1900
DGENRE=Blues
TTITLE0=Northern Lights
TTITLE1=Breather 2000
TTITLE2=Whispering Wind
TTITLE3=Letting the Cable sleep
TTITLE4=Winter pagent
TTITLE5=Riva
TTITLE6=Sunshines better
TTITLE7=Offshore
TTITLE8=Troubled Girl
TTITLE9=More than ever people
TTITLE10=Transfatty acid
EXTD=
EXTT0=
EXTT1=
EXTT2=
EXTT3=
EXTT4=
EXTT5=
EXTT6=
EXTT7=
EXTT8=
EXTT9=
EXTT10=
PLAYORDER=
